<?xml version="1.0" standalone="no"?>
<!DOCTYPE svg PUBLIC "-//W3C//DTD SVG 20010904//EN"
 "http://www.w3.org/TR/2001/REC-SVG-20010904/DTD/svg10.dtd">
<svg version="1.0" xmlns="http://www.w3.org/2000/svg"
 width="512.000000pt" height="512.000000pt" viewBox="0 0 512.000000 512.000000"
 preserveAspectRatio="xMidYMid meet">

<g transform="translate(0.000000,512.000000) scale(0.100000,-0.100000)" stroke="none">
<path d="M1283 4412 c-63 -22 -115 -61 -154 -115 -63 -87 -59 14 -57 -1757 l3
-1615 21 -46 c31 -67 87 -124 152 -156 l57 -28 889 -3 889 -2 123 122 c67 68
285 289 483 491 l361 369 -2 1261 -3 1262 -21 46 c-31 67 -87 124 -152 156
l-57 28 -1240 2 c-1170 2 -1243 1 -1292 -15z m2537 -145 c30 -16 51 -37 67
-67 l23 -43 0 -1193 0 -1193 -347 -3 c-329 -3 -350 -4 -394 -24 -67 -31 -114
-78 -149 -146 l-30 -61 0 -354 0 -353 -822 0 c-814 0 -822 0 -865 21 -29 14
-52 35 -68 63 l-25 43 0 1603 0 1603 25 42 c16 28 39 50 67 64 l43 21 1216 0
1216 0 43 -23z m-346 -2979 c-185 -189 -341 -344 -346 -346 -4 -2 -8 117 -8
265 1 323 7 350 95 404 27 17 55 19 314 19 l283 0 -338 -342z"/>
</g>
</svg>
