<?xml version="1.0" standalone="no"?>
<!DOCTYPE svg PUBLIC "-//W3C//DTD SVG 20010904//EN"
 "http://www.w3.org/TR/2001/REC-SVG-20010904/DTD/svg10.dtd">
<svg version="1.0" xmlns="http://www.w3.org/2000/svg"
 width="702.000000pt" height="345.000000pt" viewBox="0 0 702.000000 345.000000"
 preserveAspectRatio="xMidYMid meet">

<g transform="translate(0.000000,345.000000) scale(0.100000,-0.100000)"
fill="#000000" stroke="none">
<path d="M1585 3344 c-95 -14 -263 -48 -345 -70 -335 -90 -789 -343 -1038
-578 -105 -100 -136 -148 -45 -69 205 176 606 390 888 474 230 69 526 105 718
88 425 -36 705 -184 783 -413 27 -78 16 -186 -28 -277 -94 -198 -315 -412
-567 -552 l-65 -36 -98 92 c-54 51 -118 107 -141 125 l-42 34 -11 214 c-6 118
-14 217 -17 221 -4 3 -13 1 -20 -6 -18 -14 -34 -99 -42 -216 -3 -49 -8 -105
-11 -122 l-5 -33 -50 25 c-78 40 -215 82 -328 101 -202 33 -400 4 -586 -86
-229 -111 -354 -277 -325 -431 26 -135 144 -236 324 -277 93 -21 511 -20 696
2 68 8 126 14 127 12 4 -4 -80 -294 -115 -396 -120 -351 -322 -716 -553 -1003
-17 -21 -29 -40 -26 -43 6 -6 146 67 203 106 23 17 80 67 126 112 230 228 351
475 472 967 24 97 50 204 56 238 l12 61 157 51 c86 28 162 51 169 51 7 0 24
-12 37 -27 46 -52 173 -248 245 -378 116 -209 209 -327 288 -364 36 -17 52
-33 67 -64 26 -54 61 -71 125 -62 55 8 172 73 243 135 l44 39 6 -41 c9 -66 35
-92 95 -96 56 -3 137 25 168 59 20 23 40 24 47 4 11 -26 83 -55 140 -55 105 0
200 71 341 255 89 116 91 117 71 70 -49 -116 -53 -156 -19 -169 30 -11 57 15
218 213 93 114 203 211 239 211 19 0 19 -4 12 -68 -5 -37 -9 -96 -9 -131 -1
-60 1 -65 33 -92 19 -16 53 -32 75 -37 47 -9 47 -9 26 -132 -23 -138 -2 -326
54 -478 50 -136 157 -262 274 -321 122 -61 215 -84 368 -89 183 -6 331 22 457
85 51 25 137 98 137 115 0 15 -82 0 -180 -33 -244 -81 -497 -76 -675 13 -135
68 -191 129 -249 270 -63 151 -79 329 -46 486 l12 53 35 -31 c47 -42 72 -50
151 -50 126 0 233 73 384 263 l70 87 28 -43 c57 -90 171 -163 278 -178 147
-20 306 36 535 189 125 84 201 150 306 265 98 108 146 178 207 302 127 260
108 456 -60 613 -147 137 -354 193 -582 158 -207 -31 -368 -99 -560 -237 -241
-172 -495 -451 -699 -767 -50 -78 -144 -267 -145 -292 -1 -8 -11 -44 -24 -80
-18 -51 -28 -67 -50 -74 -20 -8 -30 -6 -43 6 -14 15 -15 29 -6 125 11 121 5
158 -33 194 -20 19 -36 24 -72 23 -65 -1 -124 -34 -209 -117 l-73 -70 36 104
c42 125 84 292 84 336 0 74 -43 46 -66 -42 -50 -191 -208 -457 -404 -682 -87
-101 -139 -133 -211 -133 -56 0 -69 13 -69 68 0 42 3 47 103 146 111 109 204
224 214 264 14 57 -38 77 -109 42 -70 -36 -183 -127 -227 -184 -42 -54 -91
-160 -91 -196 0 -27 -150 -143 -166 -128 -2 3 8 49 21 104 14 54 28 128 32
163 5 54 3 66 -11 77 -35 25 -71 -2 -150 -109 -122 -167 -247 -273 -314 -265
-24 3 -18 8 47 47 199 118 362 327 330 421 -14 38 -36 50 -91 50 -144 0 -347
-203 -409 -408 l-12 -42 -25 22 c-54 50 -119 159 -227 376 -69 139 -135 257
-169 302 -31 41 -56 78 -56 82 0 3 36 27 80 53 188 110 393 292 489 433 100
148 153 294 152 419 -1 103 -14 160 -57 243 -109 211 -312 341 -614 395 -91
16 -398 29 -465 19z m4514 -835 c211 -36 371 -191 371 -361 0 -51 -43 -195
-82 -273 -74 -146 -231 -310 -434 -452 -201 -141 -360 -214 -464 -213 -86 2
-194 71 -234 152 -42 83 -37 103 55 240 229 343 275 564 114 548 -37 -3 -66
-31 -122 -117 -100 -153 -163 -323 -179 -486 -8 -76 -4 -71 -138 -222 -137
-156 -220 -214 -304 -215 -53 0 -92 33 -92 78 0 25 12 38 74 86 139 106 256
247 256 307 0 32 -65 89 -101 89 -16 0 -29 4 -29 9 0 25 303 374 424 489 127
121 348 255 502 306 131 43 264 55 383 35z m-5054 -285 c96 -16 260 -68 363
-115 l62 -28 -5 -43 c-8 -59 -57 -274 -65 -288 -11 -18 -204 -47 -425 -64
-333 -27 -419 -21 -533 35 -142 69 -159 196 -42 322 139 151 398 224 645 181z
m4394 -220 c-19 -69 -143 -303 -155 -291 -10 10 99 254 138 310 26 36 30 31
17 -19z m-3755 -89 c26 -29 46 -58 46 -63 0 -11 -93 -49 -144 -59 -27 -6 -28
-4 -23 18 3 13 9 56 12 94 9 98 10 99 39 80 14 -9 45 -41 70 -70z m3097 -382
c-15 -30 -160 -179 -161 -166 0 19 87 128 127 156 45 32 47 32 34 10z m-1231
-142 c-6 -12 -44 -61 -84 -109 -130 -155 -166 -173 -76 -38 45 67 157 182 168
172 2 -2 -1 -14 -8 -25z m-640 -39 c0 -14 -66 -119 -105 -166 -33 -40 -156
-150 -190 -169 -38 -21 76 175 143 247 49 52 111 96 134 96 10 0 18 -4 18 -8z"/>
<path d="M6677 522 c-25 -27 -22 -78 5 -96 32 -23 65 -20 94 10 44 43 14 104
-51 104 -18 0 -39 -8 -48 -18z"/>
</g>
</svg>
